# xmcd
#
# Track frame offsets:
#	150
#	13261
#	29862
#	43335
#	59816
#	76816
#	88297
#	101939
#	124673
#	138139
#	155207
#	167386
#	184262
#
# Disc length: 2593 seconds
#
# Revision: 1
# Processed by: cddbd v1.5.2PL0 Copyright (c) Steve Scherf et al.
# Submitted via: audiograbber 1.83.01
#
DISCID=be0a1f0d
DTITLE=Cold Creek - Big Sky
DYEAR=2009
DGENRE=Bluegrass
TTITLE0=Shenendoah Breakdown
TTITLE1=Midnight Rider
TTITLE2=Live and Let Live
TTITLE3=Faithfully
TTITLE4=Bill's Reel
TTITLE5=Wichita
TTITLE6=You Ain't Over Me Yet
TTITLE7=Four Mile Road
TTITLE8=Dark Hollow
TTITLE9=Big Sky
TTITLE10=Captain Crunch
TTITLE11=Ride On a Train
TTITLE12=Lonesome Hearted Blues
EXTD=
EXTT0=
EXTT1=
EXTT2=
EXTT3=
EXTT4=
EXTT5=
EXTT6=
EXTT7=
EXTT8=
EXTT9=
EXTT10=
EXTT11=
EXTT12=
PLAYORDER=
